<svg width="20" height="20" viewBox="0 0 20 20" fill="none" xmlns="http://www.w3.org/2000/svg">
<path d="M10 7.3335C13.3137 7.3335 16 6.43807 16 5.3335C16 4.22893 13.3137 3.3335 10 3.3335C6.68629 3.3335 4 4.22893 4 5.3335C4 6.43807 6.68629 7.3335 10 7.3335Z" stroke="#030712" stroke-linecap="round" stroke-linejoin="round"/>
<path d="M4.00004 5.3335V14.6668C3.99633 14.9874 4.22391 15.3037 4.6636 15.5888C5.10329 15.874 5.7422 16.1197 6.52647 16.3053C7.31074 16.4909 8.21739 16.611 9.16999 16.6553C10.1226 16.6997 11.0932 16.667 12 16.5602" stroke="#030712" stroke-linecap="round" stroke-linejoin="round"/>
<path d="M16 5.3335V7.3335" stroke="#030712" stroke-linecap="round" stroke-linejoin="round"/>
<path d="M16 10L14 13.3333H16.6667L14.6667 16.6667" stroke="#030712" stroke-linecap="round" stroke-linejoin="round"/>
<path d="M4 10C4.00096 10.3117 4.22046 10.619 4.64097 10.8974C5.06148 11.1758 5.67137 11.4175 6.42198 11.6034C7.17258 11.7893 8.04312 11.9141 8.96414 11.9679C9.88516 12.0217 10.8312 12.003 11.7267 11.9133" stroke="#030712" stroke-linecap="round" stroke-linejoin="round"/>
</svg>
