<svg width="20" height="20" viewBox="0 0 20 20" fill="none" xmlns="http://www.w3.org/2000/svg">
<path d="M4 4V16H16" stroke="#030712" stroke-linecap="round" stroke-linejoin="round"/>
<path d="M8.66699 8.6665H7.33366C6.96547 8.6665 6.66699 8.96498 6.66699 9.33317V12.6665C6.66699 13.0347 6.96547 13.3332 7.33366 13.3332H8.66699C9.03518 13.3332 9.33366 13.0347 9.33366 12.6665V9.33317C9.33366 8.96498 9.03518 8.6665 8.66699 8.6665Z" stroke="#030712" stroke-linecap="round" stroke-linejoin="round"/>
<path d="M14 5.3335H12.6667C12.2985 5.3335 12 5.63197 12 6.00016V12.6668C12 13.035 12.2985 13.3335 12.6667 13.3335H14C14.3682 13.3335 14.6667 13.035 14.6667 12.6668V6.00016C14.6667 5.63197 14.3682 5.3335 14 5.3335Z" stroke="#030712" stroke-linecap="round" stroke-linejoin="round"/>
</svg>
