<svg width="20" height="20" viewBox="0 0 20 20" fill="none" xmlns="http://www.w3.org/2000/svg">
<path d="M11.333 14.6665C11.333 13.6056 10.9116 12.5882 10.1614 11.8381C9.41129 11.0879 8.39387 10.6665 7.33301 10.6665C6.27214 10.6665 5.25473 11.0879 4.50458 11.8381C3.75444 12.5882 3.33301 13.6056 3.33301 14.6665" stroke="#030712" stroke-linecap="round" stroke-linejoin="round"/>
<path d="M7.33366 10.6668C8.80642 10.6668 10.0003 9.47292 10.0003 8.00016C10.0003 6.5274 8.80642 5.3335 7.33366 5.3335C5.8609 5.3335 4.66699 6.5274 4.66699 8.00016C4.66699 9.47292 5.8609 10.6668 7.33366 10.6668Z" stroke="#030712" stroke-linecap="round" stroke-linejoin="round"/>
<path d="M12.667 9.33333L14.0003 10.6667L16.667 8" stroke="#030712" stroke-linecap="round" stroke-linejoin="round"/>
</svg>
