<svg width="20" height="20" viewBox="0 0 20 20" fill="none" xmlns="http://www.w3.org/2000/svg">
<g clip-path="url(#clip0_115604_137952)">
<path d="M16.0003 12.6665H13.3337C12.9655 12.6665 12.667 12.965 12.667 13.3332V15.9998C12.667 16.368 12.9655 16.6665 13.3337 16.6665H16.0003C16.3685 16.6665 16.667 16.368 16.667 15.9998V13.3332C16.667 12.965 16.3685 12.6665 16.0003 12.6665Z" stroke="#030712" stroke-linecap="round" stroke-linejoin="round"/>
<path d="M6.66634 12.6665H3.99967C3.63148 12.6665 3.33301 12.965 3.33301 13.3332V15.9998C3.33301 16.368 3.63148 16.6665 3.99967 16.6665H6.66634C7.03453 16.6665 7.33301 16.368 7.33301 15.9998V13.3332C7.33301 12.965 7.03453 12.6665 6.66634 12.6665Z" stroke="#030712" stroke-linecap="round" stroke-linejoin="round"/>
<path d="M11.3333 3.3335H8.66667C8.29848 3.3335 8 3.63197 8 4.00016V6.66683C8 7.03502 8.29848 7.3335 8.66667 7.3335H11.3333C11.7015 7.3335 12 7.03502 12 6.66683V4.00016C12 3.63197 11.7015 3.3335 11.3333 3.3335Z" stroke="#030712" stroke-linecap="round" stroke-linejoin="round"/>
<path d="M5.33301 12.6667V10.6667C5.33301 10.4899 5.40325 10.3203 5.52827 10.1953C5.65329 10.0702 5.82286 10 5.99967 10H13.9997C14.1765 10 14.3461 10.0702 14.4711 10.1953C14.5961 10.3203 14.6663 10.4899 14.6663 10.6667V12.6667" stroke="#030712" stroke-linecap="round" stroke-linejoin="round"/>
<path d="M10 10.0002V7.3335" stroke="#030712" stroke-linecap="round" stroke-linejoin="round"/>
</g>
<defs>
<clipPath id="clip0_115604_137952">
<rect width="16" height="16" fill="white" transform="translate(2 2)"/>
</clipPath>
</defs>
</svg>
